<svg version="1.1" id="Layer_1" xmlns="http://www.w3.org/2000/svg" xmlns:xlink="http://www.w3.org/1999/xlink" x="0px" y="0px"
	 width="100%" viewBox="0 0 320 60" enable-background="new 0 0 320 60" xml:space="preserve">
<path fill="#000000" opacity="1.000000" stroke="none" 
	d="
M249.000000,61.000000 
	C166.406433,61.000000 83.812881,61.000000 1.109660,61.000000 
	C1.109660,41.091331 1.109660,21.181856 1.109660,1.000000 
	C63.020630,1.000000 125.041656,1.000000 187.817627,1.283740 
	C187.579147,2.678230 186.595215,3.797628 185.590790,4.898331 
	C178.871628,12.261486 177.671204,24.374451 183.439392,31.700523 
	C185.421524,34.217979 186.755035,36.510235 187.480988,39.703880 
	C188.524933,44.296482 190.812347,48.564877 196.129700,51.584385 
	C194.478149,47.996426 193.113708,45.361282 192.033630,42.614326 
	C190.047485,37.562916 192.946960,30.631294 185.508224,27.115427 
	C192.924820,31.613489 199.281235,29.550726 205.355942,25.912043 
	C208.857819,23.814463 212.124542,23.492947 215.995712,24.902723 
	C223.654465,27.691820 231.458649,30.081251 239.200897,32.641392 
	C243.247375,33.979454 247.290009,35.329159 251.334366,36.673599 
	C251.500320,36.221161 251.666275,35.768719 251.832230,35.316277 
	C243.220520,31.536196 234.567078,27.847830 226.008194,23.951746 
	C216.318970,19.541107 207.034470,20.006901 197.532288,24.863785 
	C195.315796,25.996704 190.876831,25.699570 189.176575,24.162315 
	C187.192673,22.368612 185.991760,18.326012 186.413025,15.557783 
	C187.169434,10.587610 189.390793,5.840387 191.000000,1.000000 
	C234.260025,1.000000 277.520050,1.000000 320.890045,1.000000 
	C320.890045,20.892330 320.890045,40.785473 320.890045,61.000000 
	C298.313446,61.000000 275.625397,61.000000 252.468658,60.607559 
	C252.203217,55.584476 248.970764,53.767654 245.337357,53.115150 
	C241.150162,52.363194 236.811935,52.452404 232.098129,52.147808 
	C233.086166,46.511314 230.182083,41.976738 224.882462,39.139771 
	C223.137878,38.205868 220.627731,38.702080 218.467651,38.544350 
	C226.786102,41.032185 230.413757,46.932800 228.163620,56.000114 
	C232.222473,56.000114 236.274094,55.540340 240.162064,56.140644 
	C243.475204,56.652199 248.164429,55.624874 249.000000,61.000000 
M156.012146,6.730242 
	C156.063644,7.486711 156.115158,8.243179 156.010498,9.823191 
	C156.062546,11.215578 156.114594,12.607965 156.012115,14.847219 
	C156.063629,16.564695 156.115143,18.282169 156.012390,20.863516 
	C156.214569,23.533978 156.416733,26.204441 156.618896,28.874903 
	C157.357056,28.848991 158.095200,28.823080 158.833344,28.797167 
	C158.833344,25.864660 158.833344,22.932152 159.183441,19.301346 
	C161.894943,18.322498 163.364441,19.365906 164.550034,21.945036 
	C165.727203,24.505848 167.553421,26.768299 169.095001,29.161596 
	C169.703308,28.880707 170.311615,28.599815 170.919922,28.318924 
	C169.272125,24.740391 167.624329,21.161858 165.981613,17.594383 
	C171.403381,14.063722 171.335571,8.520326 165.594757,6.105932 
	C163.045792,5.033932 159.877502,5.434509 156.456467,5.067068 
	C156.359863,5.372806 156.263260,5.678544 156.012146,6.730242 
M89.988129,15.205425 
	C89.274681,9.090582 85.589821,5.724199 78.102654,5.011771 
	C76.174187,5.011771 74.245720,5.011771 72.000969,5.011771 
	C72.000969,12.192266 71.900772,18.957785 72.100998,25.714401 
	C72.133827,26.822159 73.286415,28.581009 74.264992,28.868118 
	C82.035446,31.147926 90.223351,24.271177 89.988129,15.205425 
M295.312042,56.002037 
	C297.351501,57.064240 299.390991,58.126438 301.430450,59.188637 
	C301.871307,58.643784 302.312195,58.098934 302.753052,57.554081 
	C301.324677,56.094273 300.107483,53.803493 298.417297,53.373989 
	C296.022675,52.765469 293.265594,53.417366 290.688202,53.733082 
	C286.898102,54.197346 283.129883,54.840321 279.260529,55.420940 
	C278.782471,50.276421 278.448486,46.047638 277.983887,41.833248 
	C277.315399,35.769119 277.915863,34.933132 284.067993,35.041382 
	C288.395386,35.117527 292.799347,34.486816 294.694366,30.500786 
	C296.346558,27.025684 296.657288,22.764633 296.908997,18.809372 
	C297.224304,13.854466 294.832520,12.285727 289.825012,13.648818 
	C286.270020,14.616523 283.548706,14.317641 281.904938,10.306548 
	C281.253601,8.717243 279.489075,7.001565 277.868835,6.488498 
	C268.831360,3.626672 262.133179,5.829398 258.956879,15.607149 
	C256.936096,21.827942 254.516998,27.919353 252.315765,33.961086 
	C258.246460,29.836143 264.638306,25.390488 271.030121,20.944834 
	C270.872040,20.527714 270.713989,20.110594 270.555939,19.693472 
	C267.821899,20.713097 265.087891,21.732721 262.001282,22.883835 
	C262.001282,21.185463 261.809570,19.537634 262.038818,17.950623 
	C262.624542,13.896103 264.295319,9.981476 268.512421,9.180781 
	C272.843018,8.358536 277.487640,8.868645 279.542877,14.064466 
	C281.272034,18.435951 284.341034,18.624346 288.310333,17.371721 
	C292.816864,15.949558 294.678711,17.693325 293.996704,22.239120 
	C293.543365,25.261129 289.697662,27.694223 286.531708,26.830509 
	C284.835510,26.367765 283.253448,25.411261 281.543579,25.109146 
	C280.798981,24.977587 279.862823,25.930437 279.013641,26.390791 
	C279.623260,26.926712 280.150360,27.739418 280.856964,27.950171 
	C283.763977,28.817249 286.725555,29.501383 289.667084,30.252794 
	C286.354218,31.707378 282.978699,32.665375 279.549347,32.932499 
	C273.198853,33.427155 272.147797,34.833305 273.935120,40.872875 
	C275.269684,45.382595 276.297455,49.983124 277.811401,55.912205 
	C270.563110,54.668736 264.809540,53.681690 259.055969,52.694645 
	C261.070496,54.507244 263.346741,56.408463 265.889282,56.883034 
	C275.429199,58.663715 285.026733,59.138229 295.312042,56.002037 
M63.000000,15.287802 
	C62.913563,16.831699 62.827126,18.375599 62.740688,19.919498 
	C58.646053,15.866581 55.700745,11.382543 52.489746,7.097607 
	C51.635406,5.957532 49.966198,5.428094 48.000103,4.198714 
	C48.000103,12.149814 47.887371,18.633017 48.095070,25.105934 
	C48.136688,26.403074 49.398403,27.661064 50.097553,28.937105 
	C50.731674,27.595633 51.811825,26.286797 51.912838,24.906313 
	C52.173058,21.350136 51.999912,17.762247 51.999912,14.187028 
	C52.391956,14.017856 52.784004,13.848683 53.176048,13.679511 
	C57.040466,18.930950 60.904888,24.182390 64.784340,29.454256 
	C65.699409,28.666908 66.143021,28.467428 66.150864,28.252075 
	C66.413475,21.042509 66.681030,13.831956 66.762794,6.619450 
	C66.768593,6.108562 65.362633,5.581670 64.613129,5.062220 
	C64.079918,5.834991 63.162006,6.572205 63.086666,7.387296 
	C62.873211,9.696762 63.004490,12.038092 63.000000,15.287802 
M131.955566,47.516346 
	C132.042145,46.108040 131.613541,44.341782 132.301636,43.351425 
	C135.884720,38.194569 133.882614,32.945633 127.626656,32.067276 
	C125.234642,31.731430 122.755981,32.012619 120.000763,32.012619 
	C120.000763,39.211067 119.902771,45.987869 120.100784,52.756008 
	C120.132423,53.837524 121.490608,54.880230 122.235519,55.940876 
	C122.823387,54.885616 123.784599,53.875900 123.920067,52.765457 
	C124.187927,50.569691 123.999123,48.318218 123.999123,46.089775 
	C124.607841,45.811749 125.216553,45.533726 125.825272,45.255699 
	C127.887291,48.207760 129.846085,51.241364 132.074219,54.062210 
	C132.742813,54.908669 134.162323,55.162006 135.237823,55.687065 
	C135.437149,55.268894 135.636490,54.850723 135.835815,54.432556 
	C134.566193,52.383644 133.296555,50.334736 131.955566,47.516346 
M53.999855,38.533264 
	C52.590969,32.184753 50.491566,31.240683 40.000702,32.446880 
	C40.000702,39.164062 39.903873,45.933273 40.097931,52.694126 
	C40.129532,53.795151 41.447517,54.859249 42.170921,55.940414 
	C42.780289,54.907612 43.780289,53.923676 43.916874,52.831734 
	C44.192562,50.627773 43.999027,48.365120 43.999027,46.126675 
	C44.582981,45.839321 45.166935,45.551968 45.750889,45.264614 
	C47.834999,48.187885 49.822166,51.188667 52.060711,53.988461 
	C52.756641,54.858868 54.133751,55.184643 55.199017,55.759750 
	C55.428703,55.336945 55.658390,54.914139 55.888077,54.491333 
	C51.509556,46.985828 51.513664,46.987354 53.981625,40.345554 
	C54.090164,40.053452 53.998379,39.686913 53.999855,38.533264 
M95.971161,25.451166 
	C98.817635,28.754089 102.578545,29.731667 106.559937,28.716959 
	C111.363068,27.492819 113.848824,23.748404 114.944077,19.103209 
	C116.127228,14.085134 112.468300,7.098729 107.869934,5.357372 
	C102.449089,3.304551 97.032516,5.773448 94.149948,11.533896 
	C91.778290,16.273376 92.966850,20.638855 95.971161,25.451166 
M57.562206,42.955280 
	C57.648533,47.297638 58.442341,51.213142 62.299423,54.087025 
	C66.137177,56.946507 70.255661,56.568974 73.734398,54.535995 
	C77.495064,52.338253 79.201767,48.599525 79.159752,43.694702 
	C79.094261,36.049622 74.509712,32.462528 69.470039,32.007908 
	C64.197731,31.532299 58.416077,34.476841 57.562206,42.955280 
M103.000008,35.654781 
	C103.000046,41.131199 102.832626,46.616409 103.119339,52.077774 
	C103.189903,53.422016 104.545448,55.568451 105.649849,55.813103 
	C108.180573,56.373722 110.936691,56.151119 113.566742,55.893665 
	C114.412827,55.810841 115.150826,54.623959 115.938271,53.942162 
	C115.109802,53.298286 114.340233,52.220394 113.440948,52.098358 
	C111.390877,51.820156 109.277214,52.010544 107.257538,52.010544 
	C107.257538,49.346775 107.257538,47.263874 107.257538,45.306465 
	C110.003128,44.990456 112.478073,44.705597 114.953018,44.420738 
	C114.960510,43.851231 114.968002,43.281727 114.975494,42.712219 
	C112.409317,42.343517 109.843140,41.974812 107.222855,41.598335 
	C107.222855,39.462875 107.222855,37.389595 107.222855,34.998314 
	C109.232185,34.998314 111.035835,35.122108 112.808083,34.940105 
	C113.564262,34.862450 114.254852,34.146301 114.975250,33.720295 
	C114.240593,33.147366 113.542786,32.147633 112.764465,32.080437 
	C110.293602,31.867109 107.758881,31.769434 105.321396,32.124767 
	C104.441917,32.252975 103.767990,33.791183 103.000008,35.654781 
M22.000000,23.326046 
	C21.999975,18.337509 22.095652,13.345735 21.927179,8.362892 
	C21.888935,7.231830 20.934736,6.131737 20.402142,5.017390 
	C19.934771,6.199772 19.193186,7.352493 19.061361,8.571171 
	C18.838110,10.635043 19.000031,12.740580 19.000031,14.705515 
	C14.981287,14.705515 11.575186,14.705515 8.199601,14.705515 
	C7.717150,5.582012 7.717150,5.582012 5.000610,5.513039 
	C5.000610,12.146976 4.950840,18.778446 5.061218,25.407249 
	C5.075629,26.272673 5.913086,27.124390 6.369324,27.982456 
	C6.912817,27.042751 7.823005,26.141239 7.925666,25.155617 
	C8.160265,22.903276 7.999800,20.609789 7.999800,18.215178 
	C11.847192,18.215178 15.250556,18.215178 19.000013,18.215178 
	C19.000013,20.381039 18.848520,22.353239 19.054094,24.287493 
	C19.187706,25.544645 19.841570,26.746504 20.262348,27.973137 
	C20.841562,26.743187 21.420776,25.513237 22.000000,23.326046 
M25.569386,28.025408 
	C26.708763,27.623865 28.335209,27.551128 28.878105,26.746920 
	C29.786867,25.400745 30.004263,23.587852 30.456491,22.149914 
	C33.772434,22.149914 36.736893,22.149914 39.658623,22.149914 
	C40.139126,23.821989 40.400150,25.430178 41.079960,26.835831 
	C41.493855,27.691645 42.553432,28.235189 43.322975,28.919003 
	C43.553825,27.906408 44.228813,26.740549 43.941132,25.906891 
	C42.435349,21.543365 40.688999,17.262707 39.019180,12.955991 
	C37.934429,10.158247 36.837543,7.365210 35.746094,4.570064 
	C35.166080,4.647994 34.586067,4.725923 34.006054,4.803853 
	C31.058468,12.327987 28.110882,19.852121 25.569386,28.025408 
M139.000000,17.474670 
	C139.000046,19.962303 139.128891,22.458363 138.966904,24.935398 
	C138.772583,27.906475 139.870453,29.294491 142.954865,29.025265 
	C144.600769,28.881598 146.315109,29.231600 147.912079,28.918180 
	C148.998001,28.705053 149.933945,27.727718 150.936966,27.092115 
	C149.994019,26.395594 149.124771,25.274258 148.092087,25.095118 
	C146.212753,24.769115 144.236389,25.002554 142.214813,25.002554 
	C142.214813,22.475193 142.214813,20.404802 142.214813,17.996014 
	C144.377609,17.996014 146.346405,18.134205 148.274963,17.916258 
	C148.896225,17.846048 149.411514,16.838116 149.975281,16.259165 
	C149.416473,15.840998 148.880463,15.104068 148.294739,15.062187 
	C146.227295,14.914355 144.142838,15.004661 142.315796,15.004661 
	C142.315796,12.230309 142.315796,10.154560 142.315796,8.221018 
	C145.412323,7.975697 148.176193,7.756728 150.940079,7.537760 
	C150.927094,6.929763 150.914108,6.321765 150.901123,5.713767 
	C147.009232,5.713767 143.117340,5.713767 139.000000,5.713767 
	C139.000000,9.229972 139.000000,12.859889 139.000000,17.474670 
M95.543709,45.967796 
	C97.110725,41.503746 98.677734,37.039696 100.244743,32.575645 
	C99.730644,32.246933 99.216545,31.918217 98.702446,31.589502 
	C97.805580,32.804840 96.635429,33.904957 96.065010,35.257923 
	C94.576424,38.788666 93.386238,42.444118 91.990189,46.015884 
	C91.703354,46.749763 91.038467,47.335876 90.547844,47.990101 
	C90.025978,47.365967 89.287613,46.822876 89.018532,46.104111 
	C87.617523,42.361641 86.478035,38.514851 84.934433,34.835728 
	C84.406715,33.577927 82.969528,32.701698 81.947868,31.651134 
	C81.622490,31.986517 81.297104,32.321899 80.971725,32.657284 
	C83.315186,39.275269 85.598228,45.915951 88.066391,52.487095 
	C88.442307,53.487904 89.679642,54.816360 90.511780,54.811600 
	C91.345367,54.806831 92.455002,53.459084 92.937744,52.456409 
	C93.832558,50.597816 94.358803,48.561779 95.543709,45.967796 
M120.032700,7.244458 
	C119.292221,6.510548 118.551735,5.776638 117.811264,5.042730 
	C117.617516,6.223316 116.983139,7.543478 117.305328,8.560633 
	C118.801369,13.283510 120.481552,17.953598 122.263077,22.578152 
	C123.146530,24.871454 124.390778,27.025770 125.552414,29.408329 
	C126.485031,28.763931 127.091171,28.578278 127.234840,28.211487 
	C130.194016,20.656618 133.100525,13.081124 136.222366,4.977942 
	C130.403519,4.932523 131.815094,10.050565 130.263382,12.558927 
	C128.453369,15.484850 127.619667,19.014734 125.997871,23.229815 
	C123.833023,17.272264 122.141548,12.617404 120.032700,7.244458 
z"/>
<path fill="#FFFFFF" opacity="1.000000" stroke="none" 
	d="
M190.625000,1.000000 
	C189.390793,5.840387 187.169434,10.587610 186.413025,15.557783 
	C185.991760,18.326012 187.192673,22.368612 189.176575,24.162315 
	C190.876831,25.699570 195.315796,25.996704 197.532288,24.863785 
	C207.034470,20.006901 216.318970,19.541107 226.008194,23.951746 
	C234.567078,27.847830 243.220520,31.536196 251.832230,35.316277 
	C251.666275,35.768719 251.500320,36.221161 251.334366,36.673599 
	C247.290009,35.329159 243.247375,33.979454 239.200897,32.641392 
	C231.458649,30.081251 223.654465,27.691820 215.995712,24.902723 
	C212.124542,23.492947 208.857819,23.814463 205.355942,25.912043 
	C199.281235,29.550726 192.924820,31.613489 185.508224,27.115427 
	C192.946960,30.631294 190.047485,37.562916 192.033630,42.614326 
	C193.113708,45.361282 194.478149,47.996426 196.129700,51.584385 
	C190.812347,48.564877 188.524933,44.296482 187.480988,39.703880 
	C186.755035,36.510235 185.421524,34.217979 183.439392,31.700523 
	C177.671204,24.374451 178.871628,12.261486 185.590790,4.898331 
	C186.595215,3.797628 187.579147,2.678230 188.286285,1.283740 
	C188.750000,1.000000 189.500000,1.000000 190.625000,1.000000 
z"/>
<path fill="#FFFFFF" opacity="1.000000" stroke="none" 
	d="
M249.375000,61.000000 
	C248.164429,55.624874 243.475204,56.652199 240.162064,56.140644 
	C236.274094,55.540340 232.222473,56.000114 228.163620,56.000114 
	C230.413757,46.932800 226.786102,41.032185 218.467651,38.544350 
	C220.627731,38.702080 223.137878,38.205868 224.882462,39.139771 
	C230.182083,41.976738 233.086166,46.511314 232.098129,52.147808 
	C236.811935,52.452404 241.150162,52.363194 245.337357,53.115150 
	C248.970764,53.767654 252.203217,55.584476 252.000000,60.607559 
	C251.250000,61.000000 250.500000,61.000000 249.375000,61.000000 
z"/>
<path fill="#FFFFFF" opacity="1.000000" stroke="none" 
	d="
M294.885681,56.001190 
	C285.026733,59.138229 275.429199,58.663715 265.889282,56.883034 
	C263.346741,56.408463 261.070496,54.507244 259.055969,52.694645 
	C264.809540,53.681690 270.563110,54.668736 277.811401,55.912205 
	C276.297455,49.983124 275.269684,45.382595 273.935120,40.872875 
	C272.147797,34.833305 273.198853,33.427155 279.549347,32.932499 
	C282.978699,32.665375 286.354218,31.707378 289.667084,30.252794 
	C286.725555,29.501383 283.763977,28.817249 280.856964,27.950171 
	C280.150360,27.739418 279.623260,26.926712 279.013641,26.390791 
	C279.862823,25.930437 280.798981,24.977587 281.543579,25.109146 
	C283.253448,25.411261 284.835510,26.367765 286.531708,26.830509 
	C289.697662,27.694223 293.543365,25.261129 293.996704,22.239120 
	C294.678711,17.693325 292.816864,15.949558 288.310333,17.371721 
	C284.341034,18.624346 281.272034,18.435951 279.542877,14.064466 
	C277.487640,8.868645 272.843018,8.358536 268.512421,9.180781 
	C264.295319,9.981476 262.624542,13.896103 262.038818,17.950623 
	C261.809570,19.537634 262.001282,21.185463 262.001282,22.883835 
	C265.087891,21.732721 267.821899,20.713097 270.555939,19.693472 
	C270.713989,20.110594 270.872040,20.527714 271.030121,20.944834 
	C264.638306,25.390488 258.246460,29.836143 252.315765,33.961086 
	C254.516998,27.919353 256.936096,21.827942 258.956879,15.607149 
	C262.133179,5.829398 268.831360,3.626672 277.868835,6.488498 
	C279.489075,7.001565 281.253601,8.717243 281.904938,10.306548 
	C283.548706,14.317641 286.270020,14.616523 289.825012,13.648818 
	C294.832520,12.285727 297.224304,13.854466 296.908997,18.809372 
	C296.657288,22.764633 296.346558,27.025684 294.694366,30.500786 
	C292.799347,34.486816 288.395386,35.117527 284.067993,35.041382 
	C277.915863,34.933132 277.315399,35.769119 277.983887,41.833248 
	C278.448486,46.047638 278.782471,50.276421 279.260529,55.420940 
	C283.129883,54.840321 286.898102,54.197346 290.688202,53.733082 
	C293.265594,53.417366 296.022675,52.765469 298.417297,53.373989 
	C300.107483,53.803493 301.324677,56.094273 302.753052,57.554081 
	C302.312195,58.098934 301.871307,58.643784 301.430450,59.188637 
	C299.390991,58.126438 297.351501,57.064240 294.885681,56.001190 
z"/>
<path fill="#FEFEFE" opacity="1.000000" stroke="none" 
	d="
M63.000000,14.827337 
	C63.004490,12.038092 62.873211,9.696762 63.086666,7.387296 
	C63.162006,6.572205 64.079918,5.834991 64.613129,5.062220 
	C65.362633,5.581670 66.768593,6.108562 66.762794,6.619450 
	C66.681030,13.831956 66.413475,21.042509 66.150864,28.252075 
	C66.143021,28.467428 65.699409,28.666908 64.784340,29.454256 
	C60.904888,24.182390 57.040466,18.930950 53.176048,13.679511 
	C52.784004,13.848683 52.391956,14.017856 51.999912,14.187028 
	C51.999912,17.762247 52.173058,21.350136 51.912838,24.906313 
	C51.811825,26.286797 50.731674,27.595633 50.097553,28.937105 
	C49.398403,27.661064 48.136688,26.403074 48.095070,25.105934 
	C47.887371,18.633017 48.000103,12.149814 48.000103,4.198714 
	C49.966198,5.428094 51.635406,5.957532 52.489746,7.097607 
	C55.700745,11.382543 58.646053,15.866581 62.740688,19.919498 
	C62.827126,18.375599 62.913563,16.831699 63.000000,14.827337 
z"/>
<path fill="#FFFFFF" opacity="1.000000" stroke="none" 
	d="
M131.991241,47.901085 
	C133.296555,50.334736 134.566193,52.383644 135.835815,54.432556 
	C135.636490,54.850723 135.437149,55.268894 135.237823,55.687065 
	C134.162323,55.162006 132.742813,54.908669 132.074219,54.062210 
	C129.846085,51.241364 127.887291,48.207760 125.825272,45.255699 
	C125.216553,45.533726 124.607841,45.811749 123.999123,46.089775 
	C123.999123,48.318218 124.187927,50.569691 123.920067,52.765457 
	C123.784599,53.875900 122.823387,54.885616 122.235519,55.940880 
	C121.490608,54.880230 120.132423,53.837524 120.100784,52.756008 
	C119.902771,45.987869 120.000763,39.211067 120.000763,32.012619 
	C122.755981,32.012619 125.234642,31.731430 127.626656,32.067276 
	C133.882614,32.945633 135.884720,38.194569 132.301636,43.351425 
	C131.613541,44.341782 132.042145,46.108040 131.991241,47.901085 
M124.002357,36.754940 
	C124.002357,38.815327 124.002357,40.875713 124.002357,44.502789 
	C127.036102,42.701984 129.171066,41.803196 130.724823,40.302631 
	C131.234604,39.810310 130.593979,36.895535 129.856659,36.589622 
	C128.114563,35.866856 125.998482,36.045528 124.002357,36.754940 
z"/>
<path fill="#FFFFFF" opacity="1.000000" stroke="none" 
	d="
M53.999878,38.944157 
	C53.998379,39.686913 54.090164,40.053452 53.981625,40.345554 
	C51.513664,46.987354 51.509556,46.985828 55.888077,54.491333 
	C55.658390,54.914139 55.428703,55.336945 55.199017,55.759750 
	C54.133751,55.184643 52.756641,54.858868 52.060711,53.988461 
	C49.822166,51.188667 47.834999,48.187885 45.750889,45.264614 
	C45.166935,45.551968 44.582981,45.839321 43.999027,46.126675 
	C43.999027,48.365120 44.192562,50.627773 43.916874,52.831734 
	C43.780289,53.923676 42.780289,54.907612 42.170921,55.940414 
	C41.447517,54.859249 40.129532,53.795151 40.097931,52.694126 
	C39.903873,45.933273 40.000702,39.164062 40.000702,32.446880 
	C50.491566,31.240683 52.590969,32.184753 53.999878,38.944157 
M46.237450,42.999416 
	C49.431580,43.066067 51.513733,41.487465 50.873009,38.330154 
	C50.134132,34.689144 47.244499,34.490898 43.365871,35.602383 
	C44.061150,38.184296 44.708675,40.588894 46.237450,42.999416 
z"/>
<path fill="#FEFEFE" opacity="1.000000" stroke="none" 
	d="
M95.680435,25.181210 
	C92.966850,20.638855 91.778290,16.273376 94.149948,11.533896 
	C97.032516,5.773448 102.449089,3.304551 107.869934,5.357372 
	C112.468300,7.098729 116.127228,14.085134 114.944077,19.103209 
	C113.848824,23.748404 111.363068,27.492819 106.559937,28.716959 
	C102.578545,29.731667 98.817635,28.754089 95.680435,25.181210 
M111.040688,14.338893 
	C111.501663,10.249949 108.726906,8.666423 105.546112,8.104618 
	C102.218719,7.516917 99.374031,8.307402 97.409988,11.889677 
	C94.876793,16.510059 95.660667,20.875454 98.882812,23.903996 
	C100.639694,25.555311 105.079666,25.760555 107.649208,24.817917 
	C111.795616,23.296804 111.610497,18.865522 111.040688,14.338893 
z"/>
<path fill="#FFFFFF" opacity="1.000000" stroke="none" 
	d="
M57.764343,42.603508 
	C58.416077,34.476841 64.197731,31.532299 69.470039,32.007908 
	C74.509712,32.462528 79.094261,36.049622 79.159752,43.694702 
	C79.201767,48.599525 77.495064,52.338253 73.734398,54.535995 
	C70.255661,56.568974 66.137177,56.946507 62.299423,54.087025 
	C58.442341,51.213142 57.648533,47.297638 57.764343,42.603508 
M67.675011,35.000080 
	C62.520184,36.152199 60.285580,39.862164 61.001144,46.080235 
	C61.483540,50.272148 64.950150,53.325371 68.856827,52.999146 
	C73.307289,52.627518 75.959045,49.383923 76.000000,44.261688 
	C76.047012,38.382038 73.668411,35.444721 67.675011,35.000080 
z"/>
<path fill="#FFFFFF" opacity="1.000000" stroke="none" 
	d="
M103.000137,35.170368 
	C103.767990,33.791183 104.441917,32.252975 105.321396,32.124767 
	C107.758881,31.769434 110.293602,31.867109 112.764465,32.080437 
	C113.542786,32.147633 114.240593,33.147366 114.975250,33.720299 
	C114.254852,34.146301 113.564262,34.862450 112.808083,34.940105 
	C111.035835,35.122108 109.232185,34.998314 107.222855,34.998314 
	C107.222855,37.389595 107.222855,39.462875 107.222855,41.598335 
	C109.843140,41.974812 112.409317,42.343517 114.975494,42.712219 
	C114.968002,43.281727 114.960510,43.851231 114.953018,44.420738 
	C112.478073,44.705597 110.003128,44.990456 107.257538,45.306465 
	C107.257538,47.263874 107.257538,49.346775 107.257538,52.010544 
	C109.277214,52.010544 111.390877,51.820156 113.440948,52.098358 
	C114.340233,52.220394 115.109802,53.298286 115.938271,53.942162 
	C115.150826,54.623959 114.412827,55.810841 113.566742,55.893665 
	C110.936691,56.151119 108.180573,56.373722 105.649849,55.813103 
	C104.545448,55.568451 103.189903,53.422016 103.119339,52.077774 
	C102.832626,46.616409 103.000046,41.131199 103.000137,35.170368 
z"/>
<path fill="#FEFEFE" opacity="1.000000" stroke="none" 
	d="
M21.999996,23.804667 
	C21.420776,25.513237 20.841562,26.743187 20.262348,27.973137 
	C19.841570,26.746504 19.187706,25.544645 19.054094,24.287493 
	C18.848520,22.353239 19.000013,20.381039 19.000013,18.215178 
	C15.250556,18.215178 11.847192,18.215178 7.999800,18.215178 
	C7.999800,20.609789 8.160265,22.903276 7.925666,25.155617 
	C7.823005,26.141239 6.912817,27.042751 6.369324,27.982456 
	C5.913086,27.124390 5.075629,26.272673 5.061218,25.407249 
	C4.950840,18.778446 5.000610,12.146976 5.000610,5.513039 
	C7.717150,5.582012 7.717150,5.582012 8.199601,14.705515 
	C11.575186,14.705515 14.981287,14.705515 19.000031,14.705515 
	C19.000031,12.740580 18.838110,10.635043 19.061361,8.571171 
	C19.193186,7.352493 19.934771,6.199772 20.402142,5.017389 
	C20.934736,6.131737 21.888935,7.231830 21.927179,8.362892 
	C22.095652,13.345735 21.999975,18.337509 21.999996,23.804667 
z"/>
<path fill="#FEFEFE" opacity="1.000000" stroke="none" 
	d="
M25.366341,27.700832 
	C28.110882,19.852121 31.058468,12.327987 34.006054,4.803853 
	C34.586067,4.725923 35.166080,4.647994 35.746094,4.570064 
	C36.837543,7.365210 37.934429,10.158247 39.019180,12.955991 
	C40.688999,17.262707 42.435349,21.543365 43.941132,25.906891 
	C44.228813,26.740549 43.553825,27.906408 43.322975,28.919003 
	C42.553432,28.235189 41.493855,27.691645 41.079960,26.835831 
	C40.400150,25.430178 40.139126,23.821989 39.658623,22.149914 
	C36.736893,22.149914 33.772434,22.149914 30.456491,22.149914 
	C30.004263,23.587852 29.786867,25.400745 28.878105,26.746920 
	C28.335209,27.551128 26.708763,27.623865 25.366341,27.700832 
M36.971912,14.825704 
	C33.795685,12.232474 33.786373,12.240266 32.335194,18.663113 
	C34.189178,18.663113 36.046303,18.663113 38.131695,18.663113 
	C37.661125,17.407133 37.331646,16.527731 36.971912,14.825704 
z"/>
<path fill="#FEFEFE" opacity="1.000000" stroke="none" 
	d="
M139.000000,16.982239 
	C139.000000,12.859889 139.000000,9.229972 139.000000,5.713767 
	C143.117340,5.713767 147.009232,5.713767 150.901123,5.713767 
	C150.914108,6.321765 150.927094,6.929763 150.940079,7.537760 
	C148.176193,7.756728 145.412323,7.975697 142.315796,8.221018 
	C142.315796,10.154560 142.315796,12.230309 142.315796,15.004661 
	C144.142838,15.004661 146.227295,14.914355 148.294739,15.062187 
	C148.880463,15.104068 149.416473,15.840998 149.975281,16.259165 
	C149.411514,16.838116 148.896225,17.846048 148.274963,17.916258 
	C146.346405,18.134205 144.377609,17.996014 142.214813,17.996014 
	C142.214813,20.404802 142.214813,22.475193 142.214813,25.002554 
	C144.236389,25.002554 146.212753,24.769115 148.092087,25.095118 
	C149.124771,25.274258 149.994019,26.395594 150.936966,27.092117 
	C149.933945,27.727718 148.998001,28.705053 147.912079,28.918180 
	C146.315109,29.231600 144.600769,28.881598 142.954865,29.025265 
	C139.870453,29.294491 138.772583,27.906475 138.966904,24.935398 
	C139.128891,22.458363 139.000046,19.962303 139.000000,16.982239 
z"/>
<path fill="#FEFEFE" opacity="1.000000" stroke="none" 
	d="
M89.833336,16.000351 
	C90.223351,24.271177 82.035446,31.147926 74.264992,28.868118 
	C73.286415,28.581009 72.133827,26.822159 72.100998,25.714401 
	C71.900772,18.957785 72.000969,12.192266 72.000969,5.011771 
	C74.245720,5.011771 76.174187,5.011771 78.551285,5.422552 
	C78.999947,6.500000 78.999985,7.166667 78.559555,7.910713 
	C77.079727,8.762051 75.191788,9.484564 75.141228,10.318466 
	C74.852448,15.081896 75.001015,19.871840 75.001015,24.603754 
	C83.816711,25.504629 86.456375,23.568266 87.500000,16.000050 
	C88.500000,16.000141 89.166664,16.000246 89.833336,16.000351 
z"/>
<path fill="#FFFFFF" opacity="1.000000" stroke="none" 
	d="
M95.291122,46.283714 
	C94.358803,48.561779 93.832558,50.597816 92.937744,52.456409 
	C92.455002,53.459084 91.345367,54.806831 90.511780,54.811600 
	C89.679642,54.816360 88.442307,53.487904 88.066391,52.487095 
	C85.598228,45.915951 83.315186,39.275269 80.971725,32.657284 
	C81.297104,32.321899 81.622490,31.986517 81.947868,31.651134 
	C82.969528,32.701698 84.406715,33.577927 84.934433,34.835728 
	C86.478035,38.514851 87.617523,42.361641 89.018532,46.104111 
	C89.287613,46.822876 90.025978,47.365967 90.547844,47.990101 
	C91.038467,47.335876 91.703354,46.749763 91.990189,46.015884 
	C93.386238,42.444118 94.576424,38.788666 96.065010,35.257923 
	C96.635429,33.904957 97.805580,32.804840 98.702446,31.589502 
	C99.216545,31.918217 99.730644,32.246933 100.244743,32.575645 
	C98.677734,37.039696 97.110725,41.503746 95.291122,46.283714 
z"/>
<path fill="#FEFEFE" opacity="1.000000" stroke="none" 
	d="
M120.241379,7.603501 
	C122.141548,12.617404 123.833023,17.272264 125.997871,23.229815 
	C127.619667,19.014734 128.453369,15.484850 130.263382,12.558927 
	C131.815094,10.050565 130.403519,4.932523 136.222366,4.977942 
	C133.100525,13.081124 130.194016,20.656618 127.234840,28.211487 
	C127.091171,28.578278 126.485031,28.763931 125.552414,29.408329 
	C124.390778,27.025770 123.146530,24.871454 122.263077,22.578152 
	C120.481552,17.953598 118.801369,13.283510 117.305328,8.560633 
	C116.983139,7.543478 117.617516,6.223316 117.811264,5.042729 
	C118.551735,5.776638 119.292221,6.510548 120.241379,7.603501 
z"/>
<path fill="#FEFEFE" opacity="1.000000" stroke="none" 
	d="
M156.166656,19.999645 
	C156.115143,18.282169 156.063629,16.564695 156.421753,14.423632 
	C157.498703,14.000042 158.166016,14.000039 158.915894,14.406298 
	C161.229736,14.761265 163.582230,15.080756 165.613205,14.416763 
	C166.171219,14.234328 166.182220,9.707195 165.735138,9.575189 
	C163.566879,8.934965 161.157379,9.111720 158.499603,8.999504 
	C157.499451,8.999865 156.833054,8.999756 156.166656,8.999647 
	C156.115158,8.243179 156.063644,7.486711 156.266296,6.265167 
	C156.740387,5.635922 156.897018,5.424780 156.990341,5.166667 
	C159.877502,5.434509 163.045792,5.033932 165.594757,6.105932 
	C171.335571,8.520326 171.403381,14.063722 165.981613,17.594383 
	C167.624329,21.161858 169.272125,24.740391 170.919922,28.318924 
	C170.311615,28.599815 169.703308,28.880707 169.095001,29.161596 
	C167.553421,26.768299 165.727203,24.505848 164.550034,21.945036 
	C163.364441,19.365906 161.894943,18.322498 158.675064,19.650593 
	C157.500015,19.999775 156.833328,19.999710 156.166656,19.999645 
z"/>
<path fill="#FEFEFE" opacity="1.000000" stroke="none" 
	d="
M89.910736,15.602888 
	C89.166664,16.000246 88.500000,16.000141 87.422775,15.621916 
	C86.709496,10.213356 83.066956,8.793924 79.000031,7.833333 
	C78.999985,7.166667 78.999947,6.500000 78.999779,5.500000 
	C85.589821,5.724199 89.274681,9.090582 89.910736,15.602888 
z"/>
<path fill="#FEFEFE" opacity="1.000000" stroke="none" 
	d="
M156.089523,20.431580 
	C156.833328,19.999710 157.500015,19.999775 158.500015,19.999743 
	C158.833344,22.932152 158.833344,25.864660 158.833344,28.797167 
	C158.095200,28.823080 157.357056,28.848991 156.618896,28.874903 
	C156.416733,26.204441 156.214569,23.533978 156.089523,20.431580 
z"/>
<path fill="#FEFEFE" opacity="1.000000" stroke="none" 
	d="
M156.088577,9.411419 
	C156.833054,8.999756 157.499451,8.999865 158.576874,9.411480 
	C158.936386,11.215337 158.884872,12.607686 158.833344,14.000036 
	C158.166016,14.000039 157.498703,14.000042 156.499023,14.000198 
	C156.114594,12.607965 156.062546,11.215578 156.088577,9.411419 
z"/>
<path fill="#FEFEFE" opacity="1.000000" stroke="none" 
	d="
M156.723404,5.116867 
	C156.897018,5.424780 156.740387,5.635922 156.343552,5.892188 
	C156.263260,5.678544 156.359863,5.372806 156.723404,5.116867 
z"/>
<path fill="#000000" opacity="1.000000" stroke="none" 
	d="
M124.017990,36.307304 
	C125.998482,36.045528 128.114563,35.866856 129.856659,36.589622 
	C130.593979,36.895535 131.234604,39.810310 130.724823,40.302631 
	C129.171066,41.803196 127.036102,42.701984 124.002357,44.502789 
	C124.002357,40.875713 124.002357,38.815327 124.017990,36.307304 
z"/>
<path fill="#000000" opacity="1.000000" stroke="none" 
	d="
M45.796825,42.996452 
	C44.708675,40.588894 44.061150,38.184296 43.365871,35.602383 
	C47.244499,34.490898 50.134132,34.689144 50.873009,38.330154 
	C51.513733,41.487465 49.431580,43.066067 45.796825,42.996452 
z"/>
<path fill="#000000" opacity="1.000000" stroke="none" 
	d="
M111.275253,14.673052 
	C111.610497,18.865522 111.795616,23.296804 107.649208,24.817917 
	C105.079666,25.760555 100.639694,25.555311 98.882812,23.903996 
	C95.660667,20.875454 94.876793,16.510059 97.409988,11.889677 
	C99.374031,8.307402 102.218719,7.516917 105.546112,8.104618 
	C108.726906,8.666423 111.501663,10.249949 111.275253,14.673052 
z"/>
<path fill="#000000" opacity="1.000000" stroke="none" 
	d="
M68.087509,35.000046 
	C73.668411,35.444721 76.047012,38.382038 76.000000,44.261688 
	C75.959045,49.383923 73.307289,52.627518 68.856827,52.999146 
	C64.950150,53.325371 61.483540,50.272148 61.001144,46.080235 
	C60.285580,39.862164 62.520184,36.152199 68.087509,35.000046 
z"/>
<path fill="#000000" opacity="1.000000" stroke="none" 
	d="
M36.987038,15.237017 
	C37.331646,16.527731 37.661125,17.407133 38.131695,18.663113 
	C36.046303,18.663113 34.189178,18.663113 32.335194,18.663113 
	C33.786373,12.240266 33.795685,12.232474 36.987038,15.237017 
z"/>
<path fill="#000000" opacity="1.000000" stroke="none" 
	d="
M78.559555,7.910713 
	C83.066956,8.793924 86.709496,10.213356 87.089447,15.621930 
	C86.456375,23.568266 83.816711,25.504629 75.001015,24.603754 
	C75.001015,19.871840 74.852448,15.081896 75.141228,10.318466 
	C75.191788,9.484564 77.079727,8.762051 78.559555,7.910713 
z"/>
<path fill="#000000" opacity="1.000000" stroke="none" 
	d="
M158.915894,14.406298 
	C158.884872,12.607686 158.936386,11.215337 158.910629,9.411012 
	C161.157379,9.111720 163.566879,8.934965 165.735138,9.575189 
	C166.182220,9.707195 166.171219,14.234328 165.613205,14.416763 
	C163.582230,15.080756 161.229736,14.761265 158.915894,14.406298 
z"/>
</svg>